<mxfile host="Electron" agent="Mozilla/5.0 (Windows NT 10.0; Win64; x64) AppleWebKit/537.36 (KHTML, like Gecko) draw.io/26.0.16 Chrome/132.0.6834.196 Electron/34.2.0 Safari/537.36" version="26.0.16">
  <diagram name="第 1 页" id="OJ0210RpTIkybgiUOnQx">
    <mxGraphModel dx="743" dy="539" grid="1" gridSize="10" guides="1" tooltips="1" connect="1" arrows="1" fold="1" page="1" pageScale="1" pageWidth="827" pageHeight="1169" math="0" shadow="0">
      <root>
        <mxCell id="0" />
        <mxCell id="1" parent="0" />
        <mxCell id="JqYaNNQgQ3jsdseVLydV-1" value="" style="pointerEvents=1;shadow=0;dashed=0;html=1;strokeColor=#666666;fillColor=#f5f5f5;labelPosition=center;verticalLabelPosition=bottom;verticalAlign=top;align=center;outlineConnect=0;shape=mxgraph.veeam.cpu;fontColor=#333333;" vertex="1" parent="1">
          <mxGeometry x="202.6" y="120" width="44.8" height="44.8" as="geometry" />
        </mxCell>
        <mxCell id="JqYaNNQgQ3jsdseVLydV-2" value="内存" style="rounded=0;whiteSpace=wrap;html=1;" vertex="1" parent="1">
          <mxGeometry x="301" y="117.4" width="98" height="50" as="geometry" />
        </mxCell>
        <mxCell id="JqYaNNQgQ3jsdseVLydV-3" value="CPU" style="text;html=1;align=center;verticalAlign=middle;resizable=0;points=[];autosize=1;strokeColor=none;fillColor=none;" vertex="1" parent="1">
          <mxGeometry x="200" y="127.4" width="50" height="30" as="geometry" />
        </mxCell>
        <mxCell id="JqYaNNQgQ3jsdseVLydV-4" value="I/O设备" style="rounded=0;whiteSpace=wrap;html=1;" vertex="1" parent="1">
          <mxGeometry x="48" y="117.4" width="98" height="50" as="geometry" />
        </mxCell>
        <mxCell id="JqYaNNQgQ3jsdseVLydV-5" value="" style="shape=flexArrow;endArrow=classic;html=1;rounded=0;exitX=1;exitY=0;exitDx=0;exitDy=0;endWidth=8.316326530612246;endSize=2.7357142857142858;width=6.428571428571429;entryX=0;entryY=1;entryDx=0;entryDy=0;" edge="1" parent="1" source="JqYaNNQgQ3jsdseVLydV-4" target="JqYaNNQgQ3jsdseVLydV-7">
          <mxGeometry width="50" height="50" relative="1" as="geometry">
            <mxPoint x="160" y="290" as="sourcePoint" />
            <mxPoint x="210" y="240" as="targetPoint" />
          </mxGeometry>
        </mxCell>
        <mxCell id="JqYaNNQgQ3jsdseVLydV-6" value="" style="shape=flexArrow;endArrow=classic;html=1;rounded=0;exitX=1;exitY=1;exitDx=0;exitDy=0;endWidth=8.316326530612246;endSize=2.7357142857142858;width=6.428571428571429;entryX=0;entryY=0;entryDx=0;entryDy=0;" edge="1" parent="1" source="JqYaNNQgQ3jsdseVLydV-7" target="JqYaNNQgQ3jsdseVLydV-2">
          <mxGeometry width="50" height="50" relative="1" as="geometry">
            <mxPoint x="247.4" y="142.17" as="sourcePoint" />
            <mxPoint x="300.4" y="142.17" as="targetPoint" />
          </mxGeometry>
        </mxCell>
        <mxCell id="JqYaNNQgQ3jsdseVLydV-7" value="DMA 控制器" style="rounded=0;whiteSpace=wrap;html=1;" vertex="1" parent="1">
          <mxGeometry x="190" y="45" width="70" height="40" as="geometry" />
        </mxCell>
        <mxCell id="JqYaNNQgQ3jsdseVLydV-8" value="" style="endArrow=classic;startArrow=classic;html=1;rounded=0;" edge="1" parent="1">
          <mxGeometry width="50" height="50" relative="1" as="geometry">
            <mxPoint x="224.5" y="120.00000000000003" as="sourcePoint" />
            <mxPoint x="224.5" y="85.20000000000002" as="targetPoint" />
          </mxGeometry>
        </mxCell>
      </root>
    </mxGraphModel>
  </diagram>
</mxfile>
